User Type,Username,Date,Text
,Pepsimal,2011-06-02T12:48Z,"I think there is something wrong with this torrent !

I have 100 percent of ""the girl who kicked..."" i I can't play them, when I right click the files the only option I get is OPEN and SEND TO.

When I look on the preferences of the files it says that they are 0 kb instead of 2 gb.

Can anyone confirm this ? - Or is it just me...

But thanks for a great upload!"
,Pepsimal,2011-06-02T13:09Z,"I found the problem !

The files name were to long, the name together with the directory name gave a to long search path, I copied the ""the girl who kicked..."" - directory to another disk and it works just fine.

Thanks again"
,VicVega,2011-07-07T16:43Z,"Nice rip, looks as good as the HDTVrip. More ppl should rip DVDs in full resolution like this.

The.Millennium.Trilogy.2009.EXTENDED.CUT.SWEDISH.NORDICSUB.DVD-RiP.x264.Part.1.mkv

Format                           : Matroska
File size                        : 2.01 GiB
Duration                         : 1h 29mn
Overall bit rate                 : 3 222 Kbps
Writing application              : HandBrake 0.9.4

Video
ID                               : 1
Format                           : AVC
Format/Info                      : Advanced Video Codec
Format profile                   : Main@L3.0
Format settings, CABAC           : Yes
Format settings, ReFrames        : 2 frames
Codec ID                         : V_MPEG4/ISO/AVC
Duration                         : 1h 29mn
Bit rate                         : 2 982 Kbps
Width                            : 720 pixels
Height                           : 576 pixels
Display aspect ratio             : 16:9
Frame rate                       : 25.000 fps
Standard                         : PAL
Color space                      : YUV
Chroma subsampling               : 4:2:0
Bit depth                        : 8 bits
Scan type                        : Progressive
Bits/(Pixel*Frame)               : 0.288
Stream size                      : 1.83 GiB (91%)
Writing library                  : x264 core 79 r1347 5ddd61b
Encoding settings                : cabac=1 / ref=2 / deblock=1:0:0 / analyse=0x1:0x111 / me=hex / subme=6 / psy=1 / psy_rd=1.0:0.0 / mixed_ref=0 / me_range=16 / chroma_me=1 / trellis=0 / 8x8dct=0 / cqm=0 / deadzone=21,11 / chroma_qp_offset=-2 / threads=3 / nr=0 / decimate=1 / mbaff=0 / constrained_intra=0 / bframes=2 / b_pyramid=0 / b_adapt=1 / b_bias=0 / direct=1 / wpredb=0 / wpredp=2 / keyint=250 / keyint_min=25 / scenecut=40 / rc_lookahead=40 / rc=abr / mbtree=1 / bitrate=2982 / ratetol=1.0 / qcomp=0.60 / qpmin=10 / qpmax=51 / qpstep=4 / ip_ratio=1.40 / aq=1:1.00
Language                         : English
Color primaries                  : BT.601-6 525, BT.1358 525, BT.1700 NTSC, SMPTE 170M
Transfer characteristics         : BT.709-5, BT.1361
Matrix coefficients              : BT.601-6 525, BT.1358 525, BT.1700 NTSC, SMPTE 170M

Audio
ID                               : 2
Format                           : MPEG Audio
Format version                   : Version 1
Format profile                   : Layer 3
Mode                             : Joint stereo
Mode extension                   : MS Stereo
Codec ID                         : A_MPEG/L3
Codec ID/Hint                    : MP3
Duration                         : 1h 29mn
Bit rate mode                    : Constant
Bit rate                         : 224 Kbps
Channel(s)                       : 2 channels
Sampling rate                    : 48.0 KHz
Compression mode                 : Lossy
Stream size                      : 143 MiB (7%)
Writing library                  : LAME3.98
Language                         : Swedish

Text #1
ID                               : 3
Format                           : VobSub
Codec ID                         : S_VOBSUB
Codec ID/Info                    : The same subtitle format used on DVDs
Language                         : Swedish

Text #2
ID                               : 4
Format                           : VobSub
Codec ID                         : S_VOBSUB
Codec ID/Info                    : The same subtitle format used on DVDs
Language                         : Danish

Text #3
ID                               : 5
Format                           : VobSub
Codec ID                         : S_VOBSUB
Codec ID/Info                    : The same subtitle format used on DVDs
Language                         : Norwegian

Text #4
ID                               : 6
Format                           : VobSub
Codec ID                         : S_VOBSUB
Codec ID/Info                    : The same subtitle format used on DVDs
Language                         : Finnish

Menu
00:00:00.000                     : Chapter  1
00:09:02.440                     : Chapter  2
00:19:27.880                     : Chapter  3
00:30:28."
,konolini,2011-08-05T17:22Z,Please seed.
,thecaptainofsweden,2011-10-02T17:18Z,"Thanks to all of you for downloading and seeding!

//TheCaptain"
,RockyMM,2011-10-13T01:36Z,Any chance for BRRips? 
,evazap99,2012-01-12T01:57Z,@Rockymm Bump! We need HD!
,calegaris,2012-01-15T20:01Z,"Great, but where can I find English subs for this version???"
,calai25,2012-05-30T10:27Z,any english subs? Please
